<svg width="82" height="48" viewBox="0 0 82 48" fill="none" xmlns="http://www.w3.org/2000/svg">
<path d="M21.0006 13.8756V18.2669L35.0009 8.71122L21.0006 0.111084V4.01831C15.3576 4.50446 10.1285 7.05213 6.40243 11.1307C2.67635 15.2092 0.740599 20.5041 0.998391 25.9125C1.25618 31.3208 3.68764 36.4257 7.78629 40.1636C11.8849 43.9016 17.3348 45.9845 23.0006 45.9785C28.0407 45.9785 35.0009 44.2839 39.001 40.2451C44.0011 34.7282 49.9612 20.8364 49.9612 20.8364L32.1075 31.8997C30.903 33.1941 29.3956 34.1983 27.7082 34.8307C26.0207 35.4631 24.2007 35.7058 22.3966 35.539C20.5924 35.3722 18.8549 34.8006 17.3256 33.8708C15.7963 32.941 14.5184 31.6792 13.5959 30.1882C12.6759 28.6943 12.1383 27.0137 12.0271 25.2835C11.9159 23.5533 12.2342 21.8225 12.9561 20.2322C13.6779 18.6419 14.7829 17.2372 16.1809 16.1325C17.5789 15.0278 19.2303 14.2545 21.0006 13.8756Z" fill="url(#paint0_linear_5_3)"/>
<path d="M60.9997 34.1244V29.7331L46.9994 39.2888L60.9997 47.8889V43.9817C66.6427 43.4955 71.8718 40.9479 75.5979 36.8693C79.3239 32.7908 81.2597 27.4959 81.0019 22.0875C80.7441 16.6792 78.3126 11.5743 74.214 7.83635C70.1153 4.09838 64.6655 2.01547 58.9997 2.0215C53.9596 2.0215 46.9994 3.71605 42.9993 7.75493C37.9992 13.2718 32.0391 27.1636 32.0391 27.1636L49.8884 16.1002C51.0923 14.8057 52.5995 13.8015 54.2869 13.1695C55.9743 12.5375 57.7941 12.2956 59.598 12.4636C61.4018 12.6316 63.1386 13.2046 64.6666 14.136C66.1945 15.0674 67.4705 16.3307 68.3902 17.823C69.31 19.3152 69.8476 20.9941 69.9591 22.7227C70.0707 24.4512 69.753 26.1805 69.032 27.7694C68.311 29.3583 67.2072 30.7618 65.8105 31.8655C64.4138 32.9692 62.7639 33.7418 60.9953 34.1202" fill="url(#paint1_linear_5_3)"/>
<defs>
<linearGradient id="paint0_linear_5_3" x1="10.8048" y1="8.07417" x2="32.2082" y2="58.2718" gradientUnits="userSpaceOnUse">
<stop stop-color="#0076EF"/>
<stop offset="0.13" stop-color="#007FF6"/>
<stop offset="0.258" stop-color="#0084F6"/>
<stop offset="0.376" stop-color="#008BF9"/>
<stop offset="0.492" stop-color="#009DF9"/>
<stop offset="0.612" stop-color="#00AEF9"/>
<stop offset="0.731" stop-color="#00B9FA"/>
<stop offset="0.829" stop-color="#00C5FB"/>
<stop offset="1" stop-color="#00CCFC"/>
</linearGradient>
<linearGradient id="paint1_linear_5_3" x1="75.9601" y1="40.2443" x2="49.641" y2="0.896697" gradientUnits="userSpaceOnUse">
<stop stop-color="#0076EF"/>
<stop offset="0.13" stop-color="#007FF6"/>
<stop offset="0.258" stop-color="#0084F6"/>
<stop offset="0.376" stop-color="#008BF9"/>
<stop offset="0.492" stop-color="#009DF9"/>
<stop offset="0.612" stop-color="#00AEF9"/>
<stop offset="0.731" stop-color="#00B9FA"/>
<stop offset="0.829" stop-color="#00C5FB"/>
<stop offset="1" stop-color="#00CCFC"/>
</linearGradient>
</defs>
</svg>
